<svg width="105" height="22" viewBox="0 0 105 22" fill="none" xmlns="http://www.w3.org/2000/svg">
<g id="Group">
<path id="Vector" d="M4.69548 0.540825H0.750381V21.9824H13.8771V18.5149H4.69548V0.540825Z" fill="#006240"/>
<path id="Vector_2" d="M15.1509 1.40766L15.204 4.57436H18.9898L18.9545 1.40766H15.1509Z" fill="#006240"/>
<path id="Vector_3" d="M19.0076 6.32583H15.204V21.9824H19.0076V6.32583Z" fill="#006240"/>
<path id="Vector_4" d="M42.0059 6.83878C41.4044 7.1926 40.9268 7.75871 40.573 8.51942V6.30804H36.9994V21.9823H40.8029V13.2606C40.8029 12.0753 41.1214 11.1554 41.776 10.5008C42.4305 9.84626 43.2974 9.52782 44.3589 9.52782H45.7034V6.16652H44.8011C43.7043 6.14883 42.7843 6.37881 42.0059 6.83878Z" fill="#006240"/>
<path id="Vector_5" d="M54.8673 1.10691L53.682 4.6982L59.3431 0.965385L54.8673 1.10691Z" fill="#C1272D"/>
<path id="Vector_6" d="M59.6793 7.90024C59.0248 7.1926 58.2287 6.62649 57.3087 6.23729C56.3711 5.83039 55.292 5.63579 54.0713 5.63579C52.6029 5.63579 51.2761 5.98961 50.1085 6.69725C48.9409 7.4049 48.0033 8.3779 47.3133 9.58089C46.6234 10.8016 46.2695 12.1992 46.2695 13.7737C46.2695 15.2951 46.6057 16.675 47.2779 17.9134C47.9502 19.1694 48.8878 20.1424 50.1085 20.8855C51.3292 21.6108 52.7445 21.9823 54.3543 21.9823C55.4158 21.9823 56.3888 21.8231 57.2911 21.487C58.1933 21.1685 58.9717 20.7086 59.6263 20.1425C60.2808 19.5586 60.7585 18.9041 61.0592 18.1611L58.0164 16.6573C57.6626 17.2765 57.2026 17.7542 56.5834 18.1257C55.9819 18.4972 55.2389 18.6741 54.3897 18.6741C53.5406 18.6741 52.7621 18.4795 52.1076 18.0726C51.453 17.6657 50.94 17.0996 50.6038 16.3566C50.4092 15.9143 50.2677 15.4366 50.2146 14.9059H61.4838C61.5546 14.6759 61.6077 14.4282 61.6431 14.1452C61.6784 13.8621 61.6784 13.5791 61.6784 13.296C61.6784 12.2346 61.5015 11.2615 61.1654 10.3416C60.8293 9.42168 60.3339 8.60789 59.6793 7.90024ZM50.3031 11.9869C50.3562 11.6507 50.4623 11.35 50.5685 11.0669C50.8869 10.3239 51.3469 9.74011 51.9661 9.33322C52.5852 8.92633 53.2752 8.73172 54.0713 8.73172C54.9028 8.73172 55.6104 8.92633 56.1942 9.33322C56.778 9.74011 57.2026 10.2885 57.468 10.9785C57.5918 11.2969 57.6626 11.6331 57.6803 11.9869H50.3031Z" fill="#006240"/>
<path id="Vector_7" d="M103.712 8.30714C103.164 7.45797 102.403 6.8034 101.43 6.34343C100.457 5.86578 99.325 5.63579 98.0335 5.63579C96.9721 5.63579 95.9991 5.8127 95.0968 6.14883C94.1946 6.50265 93.4162 6.96262 92.7439 7.58181C92.0893 8.1833 91.594 8.90864 91.2932 9.72242L94.3715 11.2262C94.6545 10.5362 95.1145 9.9701 95.7337 9.52782C96.3529 9.08555 97.0782 8.87325 97.8743 8.87325C98.7412 8.87325 99.4311 9.10324 99.9442 9.54551C100.457 9.98779 100.723 10.5539 100.723 11.2262V11.7392L96.0875 12.4999C94.8668 12.6945 93.8408 13.013 93.0447 13.4729C92.2486 13.9329 91.6471 14.499 91.2402 15.189C90.851 15.8612 90.6564 16.6396 90.6564 17.5065C90.6564 18.4087 90.8687 19.2048 91.3109 19.8771C91.7532 20.5493 92.3724 21.0801 93.2039 21.4516C94.0177 21.8231 94.973 22 96.0698 22C96.9367 22 97.7151 21.8762 98.4227 21.6462C99.1304 21.4162 99.7496 21.0624 100.316 20.6024C100.546 20.4078 100.758 20.2132 100.97 20.0009V21.9292H104.544V11.2262C104.544 10.1116 104.261 9.15631 103.712 8.30714ZM100.74 15.2774C100.74 15.9674 100.581 16.6042 100.245 17.2057C99.9265 17.8072 99.4488 18.2672 98.8473 18.6033C98.2458 18.9395 97.5559 19.0987 96.7598 19.0987C96.1406 19.0987 95.6276 18.9395 95.2207 18.621C94.8138 18.3026 94.6015 17.878 94.6015 17.3473C94.6015 16.7988 94.7784 16.3389 95.1499 16.0027C95.5214 15.6666 96.0698 15.4366 96.8129 15.2951L100.723 14.6051V15.2774H100.74Z" fill="#FFA500"/>
<path id="Vector_8" d="M27.9946 16.5336L29.6753 21.9824L35.8318 6.32583H31.7097L27.9946 16.5336Z" fill="#006240"/>
<path id="Vector_9" d="M24.2972 6.32583H20.1752L26.3317 21.9824L27.9946 16.5336L24.2972 6.32583Z" fill="#006240"/>
<path id="Vector_10" d="M26.3317 21.9824H29.6753L27.9947 16.5336L26.3317 21.9824Z" fill="#338166"/>
<path id="Vector_11" d="M77.6888 10.2178L79.3164 14.2514L77.8303 16.2151L84.4645 7.40495V21.9824H88.3919V0.540829H84.6591L77.6888 10.2178Z" fill="#FFA500"/>
<path id="Vector_12" d="M77.6888 10.2178L70.5593 0.540829H66.7911V21.9824H70.7362V7.13959L77.3703 16.2151L75.9551 14.2868L77.6888 10.2178Z" fill="#FFA500"/>
<path id="Vector_13" d="M77.6888 10.2179L75.9551 14.2868L77.3704 16.2151H77.8304L79.3164 14.2514L77.6888 10.2179Z" fill="#FFC04D"/>
</g>
</svg>
