<svg width="2633" height="485" viewBox="0 0 2633 485" fill="none" xmlns="http://www.w3.org/2000/svg">
<g clip-path="url(#clip0_2_178)">
<g clip-path="url(#clip1_2_178)">
<path d="M451.736 228.014H308.905V290.435H401.413C404.654 290.435 407.762 291.723 410.054 294.015C412.346 296.306 413.633 299.415 413.633 302.656V409.754C413.633 412.995 412.346 416.104 410.054 418.396C407.762 420.687 404.654 421.975 401.413 421.975H178.026C174.785 421.975 171.676 420.687 169.385 418.396C167.093 416.104 165.805 412.995 165.805 409.754V323.308C148.037 347.749 135.499 363.659 135.499 363.659C135.499 363.659 122.032 346.429 103.286 320.253V460.053C103.286 466.535 105.861 472.752 110.445 477.335C115.028 481.919 121.245 484.494 127.727 484.494H413.682H451.785C458.267 484.494 464.484 481.919 469.067 477.335C473.651 472.752 476.226 466.535 476.226 460.053V252.455C476.226 249.241 475.592 246.059 474.361 243.09C473.129 240.122 471.325 237.425 469.05 235.155C466.775 232.885 464.075 231.086 461.104 229.86C458.133 228.635 454.95 228.008 451.736 228.014Z" fill="#006240"/>
<path d="M136.038 0.569336C72.9321 0.569336 16.8409 51.8947 21.7534 114.829C22.6764 123.668 24.6792 132.36 27.717 140.712C35.6113 163.808 50.2512 191.206 66.2843 217.48C79.3111 238.865 93.169 259.493 105.243 276.455L106.22 277.873C123.329 301.947 136.038 318.298 136.038 318.298C136.038 318.298 148.405 302.704 165 279.437L165.978 278.044C177.807 261.4 191.665 241.041 204.716 219.753C221.507 192.306 237.075 163.295 244.921 138.708C247.558 130.962 249.361 122.958 250.298 114.829C256.432 52.0169 199.144 0.569336 136.038 0.569336ZM133.936 145.502C126.303 145.502 118.842 143.239 112.496 138.998C106.149 134.758 101.203 128.731 98.2818 121.679C95.3609 114.627 94.5966 106.868 96.0857 99.3816C97.5748 91.8956 101.25 85.0192 106.647 79.622C112.045 74.2249 118.921 70.5494 126.407 69.0603C133.893 67.5712 141.653 68.3355 148.704 71.2564C155.756 74.1773 161.783 79.1237 166.024 85.4701C170.264 91.8165 172.528 99.2778 172.528 106.911C172.528 111.978 171.529 116.997 169.59 121.679C167.651 126.361 164.808 130.615 161.224 134.199C157.641 137.783 153.387 140.625 148.704 142.565C144.022 144.504 139.004 145.502 133.936 145.502Z" fill="#006240"/>
<path d="M207.378 262.841V379.154C207.375 380.148 207.568 381.133 207.946 382.052C208.324 382.971 208.88 383.806 209.581 384.51C210.283 385.214 211.117 385.773 212.034 386.154C212.952 386.535 213.936 386.731 214.93 386.731H372.23C375.471 386.731 378.579 385.443 380.871 383.152C383.163 380.86 384.45 377.752 384.45 374.511V336.53C384.45 333.289 383.163 330.181 380.871 327.889C378.579 325.597 375.471 324.31 372.23 324.31H282.117C278.876 324.31 275.768 323.022 273.476 320.73C271.185 318.439 269.897 315.33 269.897 312.089V146.675C256.186 183.043 231.721 225.423 207.378 262.841Z" fill="#006240"/>
<path d="M3.28935e-05 475.28C-0.00647235 477.713 0.95215 480.049 2.66569 481.777C4.37923 483.504 6.70781 484.481 9.14083 484.494H53.3784C55.8114 484.488 58.1425 483.517 59.8607 481.794C61.5788 480.071 62.5436 477.738 62.5436 475.305V260.887C37.8341 222.491 13.198 179.671 3.28935e-05 143.938V475.28Z" fill="#006240"/>
</g>
<path d="M618.899 51.7988H539.355V484.114H804.024V414.202H618.899V51.7988Z" fill="#006240"/>
<path d="M829.705 69.2764L830.775 133.125H907.108L906.395 69.2764H829.705Z" fill="#006240"/>
<path d="M907.465 168.439H830.775V484.115H907.465V168.439Z" fill="#006240"/>
<path d="M1371.17 178.781C1359.04 185.915 1349.41 197.329 1342.28 212.667V168.08H1270.22V484.113H1346.91V308.262C1346.91 284.363 1353.33 265.815 1366.53 252.617C1379.73 239.42 1397.21 232.999 1418.61 232.999H1445.72V165.227H1427.53C1405.41 164.87 1386.86 169.507 1371.17 178.781Z" fill="#006240"/>
<path d="M1630.49 63.2125L1606.59 135.622L1720.73 60.3589L1630.49 63.2125Z" fill="#C1272D"/>
<path d="M1727.51 200.183C1714.31 185.915 1698.26 174.501 1679.71 166.654C1660.81 158.45 1639.05 154.526 1614.44 154.526C1584.83 154.526 1558.08 161.66 1534.54 175.928C1511 190.196 1492.09 209.814 1478.18 234.069C1464.27 258.681 1457.13 286.86 1457.13 318.606C1457.13 349.282 1463.91 377.104 1477.47 402.073C1491.02 427.398 1509.93 447.017 1534.54 461.998C1559.15 476.622 1587.69 484.113 1620.14 484.113C1641.55 484.113 1661.16 480.903 1679.36 474.126C1697.55 467.705 1713.24 458.431 1726.44 447.017C1739.64 435.246 1749.27 422.048 1755.33 407.067L1693.98 376.748C1686.85 389.232 1677.57 398.863 1665.09 406.353C1652.96 413.844 1637.98 417.411 1620.86 417.411C1603.74 417.411 1588.04 413.487 1574.84 405.283C1561.65 397.079 1551.3 385.665 1544.53 370.684C1540.6 361.766 1537.75 352.136 1536.68 341.435H1763.89C1765.32 336.798 1766.39 331.804 1767.1 326.097C1767.82 320.39 1767.82 314.682 1767.82 308.975C1767.82 287.574 1764.25 267.955 1757.47 249.407C1750.7 230.859 1740.71 214.451 1727.51 200.183ZM1538.46 282.58C1539.53 275.803 1541.67 269.739 1543.81 264.032C1550.23 249.05 1559.51 237.28 1571.99 229.076C1584.48 220.872 1598.39 216.948 1614.44 216.948C1631.2 216.948 1645.47 220.872 1657.24 229.076C1669.01 237.28 1677.57 248.337 1682.92 262.248C1685.42 268.669 1686.85 275.446 1687.2 282.58H1538.46Z" fill="#006240"/>
<path d="M2615.33 208.387C2604.27 191.266 2588.93 178.068 2569.31 168.794C2549.69 159.163 2526.86 154.526 2500.83 154.526C2479.42 154.526 2459.81 158.093 2441.61 164.87C2423.42 172.004 2407.73 181.278 2394.17 193.763C2380.98 205.89 2370.99 220.515 2364.92 236.923L2426.99 267.242C2432.7 253.331 2441.97 241.917 2454.46 232.999C2466.94 224.082 2481.56 219.801 2497.62 219.801C2515.09 219.801 2529.01 224.439 2539.35 233.356C2549.69 242.273 2555.04 253.688 2555.04 267.242V277.586L2461.59 292.924C2436.98 296.848 2416.29 303.268 2400.24 312.542C2384.19 321.816 2372.06 333.231 2363.85 347.142C2356.01 360.696 2352.08 376.391 2352.08 393.869C2352.08 412.06 2356.36 428.112 2365.28 441.666C2374.2 455.221 2386.68 465.921 2403.45 473.412C2419.86 480.903 2439.12 484.47 2461.23 484.47C2478.71 484.47 2494.41 481.973 2508.67 477.336C2522.94 472.699 2535.43 465.565 2546.84 456.291C2551.48 452.367 2555.76 448.443 2560.04 444.163V483.043H2632.09V267.242C2632.09 244.77 2626.38 225.509 2615.33 208.387ZM2555.4 348.925C2555.4 362.836 2552.19 375.677 2545.41 387.805C2538.99 399.933 2529.36 409.207 2517.23 415.984C2505.11 422.761 2491.2 425.972 2475.14 425.972C2462.66 425.972 2452.32 422.761 2444.11 416.341C2435.91 409.92 2431.63 401.359 2431.63 390.659C2431.63 379.601 2435.19 370.327 2442.68 363.55C2450.18 356.773 2461.23 352.136 2476.21 349.282L2555.04 335.371V348.925H2555.4Z" fill="#FFA500"/>
<path d="M1088.67 374.252L1122.55 484.115L1246.68 168.439H1163.57L1088.67 374.252Z" fill="#006240"/>
<path d="M1014.12 168.439H931.008L1055.14 484.115L1088.67 374.252L1014.12 168.439Z" fill="#006240"/>
<path d="M1055.14 484.114H1122.55L1088.67 374.252L1055.14 484.114Z" fill="#338166"/>
<path d="M2090.62 246.911L2123.44 328.238L2093.48 367.831L2227.24 190.197V484.114H2306.43V51.7988H2231.16L2090.62 246.911Z" fill="#FFA500"/>
<path d="M2090.62 246.911L1946.88 51.7988H1870.9V484.114H1950.44V184.846L2084.2 367.831L2055.67 328.951L2090.62 246.911Z" fill="#FFA500"/>
<path d="M2090.63 246.912L2055.67 328.952L2084.21 367.832H2093.48L2123.44 328.239L2090.63 246.912Z" fill="#FFC04D"/>
</g>
<defs>
<clipPath id="clip0_2_178">
<rect width="2632.09" height="483.9" fill="white" transform="translate(0 0.569336)"/>
</clipPath>
<clipPath id="clip1_2_178">
<rect width="476.177" height="483.9" fill="white" transform="translate(0 0.569336)"/>
</clipPath>
</defs>
</svg>
