<svg width="16" height="16" viewBox="0 0 16 16" fill="none" xmlns="http://www.w3.org/2000/svg">
<g id="proicons:globe">
<path id="Vector" d="M14.1667 8C14.1667 6.3645 13.517 4.79598 12.3605 3.63951C11.2041 2.48303 9.63554 1.83333 8.00004 1.83333M14.1667 8H1.83337M14.1667 8C14.1667 9.6355 13.517 11.204 12.3605 12.3605C11.2041 13.517 9.63554 14.1667 8.00004 14.1667M8.00004 1.83333C6.36454 1.83333 4.79602 2.48303 3.63955 3.63951C2.48307 4.79598 1.83337 6.3645 1.83337 8M8.00004 1.83333C7.66671 1.83333 5.33337 4.594 5.33337 8C5.33337 11.406 7.66671 14.1667 8.00004 14.1667M8.00004 1.83333C8.33337 1.83333 10.6667 4.594 10.6667 8C10.6667 11.406 8.33337 14.1667 8.00004 14.1667M1.83337 8C1.83337 9.6355 2.48307 11.204 3.63955 12.3605C4.79602 13.517 6.36454 14.1667 8.00004 14.1667" stroke="#006240" stroke-width="1.5" stroke-linecap="round" stroke-linejoin="round"/>
</g>
</svg>
