<svg width="24" height="24" viewBox="0 0 24 24" fill="none" xmlns="http://www.w3.org/2000/svg">
<g id="Logo/Icon" clip-path="url(#clip0_15_83)">
<g id="Layer 2">
<g id="Layer 1">
<path id="Vector" d="M22.4048 11.2806H15.3208V14.3765H19.9089C20.0696 14.3765 20.2238 14.4404 20.3375 14.554C20.4511 14.6677 20.515 14.8218 20.515 14.9826V20.2944C20.515 20.4551 20.4511 20.6093 20.3375 20.7229C20.2238 20.8366 20.0696 20.9005 19.9089 20.9005H8.82953C8.66879 20.9005 8.51463 20.8366 8.40096 20.7229C8.2873 20.6093 8.22344 20.4551 8.22344 20.2944V16.0069C7.34219 17.2191 6.72034 18.0082 6.72034 18.0082C6.72034 18.0082 6.05242 17.1536 5.12268 15.8554V22.789C5.12268 23.1105 5.25039 23.4189 5.47772 23.6462C5.70505 23.8735 6.01337 24.0012 6.33486 24.0012H20.5174H22.4072C22.7287 24.0012 23.037 23.8735 23.2643 23.6462C23.4917 23.4189 23.6194 23.1105 23.6194 22.789V12.4928C23.6194 12.3334 23.5879 12.1755 23.5269 12.0283C23.4658 11.8811 23.3763 11.7474 23.2635 11.6348C23.1507 11.5222 23.0167 11.4329 22.8694 11.3722C22.722 11.3114 22.5642 11.2803 22.4048 11.2806Z" fill="#006240"/>
<path id="Vector_2" d="M6.74709 7.62939e-06C3.61723 7.62939e-06 0.835272 2.54559 1.07892 5.66696C1.1247 6.10534 1.22403 6.53645 1.37469 6.95066C1.76623 8.09617 2.49233 9.45503 3.28752 10.7581C3.93361 11.8188 4.62092 12.8419 5.21974 13.6831L5.26822 13.7534C6.11675 14.9474 6.74709 15.7584 6.74709 15.7584C6.74709 15.7584 7.36045 14.985 8.18352 13.831L8.23201 13.7619C8.81871 12.9364 9.50601 11.9267 10.1533 10.8709C10.9861 9.50958 11.7582 8.07072 12.1474 6.85126C12.2782 6.46712 12.3676 6.0701 12.414 5.66696C12.7183 2.55165 9.87694 7.62939e-06 6.74709 7.62939e-06ZM6.64284 7.18825C6.26428 7.18825 5.89422 7.07599 5.57946 6.86568C5.2647 6.65536 5.01937 6.35643 4.8745 6.00668C4.72963 5.65694 4.69173 5.27209 4.76558 4.9008C4.83943 4.52952 5.02173 4.18847 5.28941 3.92079C5.55709 3.6531 5.89814 3.47081 6.26943 3.39696C6.64072 3.3231 7.02556 3.36101 7.37531 3.50587C7.72505 3.65074 8.02398 3.89607 8.2343 4.21083C8.44462 4.52559 8.55687 4.89565 8.55687 5.27421C8.55687 5.52557 8.50737 5.77446 8.41118 6.00668C8.31499 6.2389 8.174 6.44991 7.99627 6.62764C7.81853 6.80538 7.60753 6.94636 7.37531 7.04255C7.14309 7.13874 6.89419 7.18825 6.64284 7.18825Z" fill="#006240"/>
<path id="Vector_3" d="M10.2853 13.0079V18.7767C10.2852 18.826 10.2948 18.8748 10.3135 18.9204C10.3323 18.966 10.3598 19.0074 10.3946 19.0423C10.4294 19.0772 10.4708 19.1049 10.5163 19.1238C10.5618 19.1427 10.6106 19.1525 10.6599 19.1525H18.4615C18.6223 19.1525 18.7764 19.0886 18.8901 18.9749C19.0037 18.8613 19.0676 18.7071 19.0676 18.5464V16.6626C19.0676 16.5019 19.0037 16.3477 18.8901 16.2341C18.7764 16.1204 18.6223 16.0566 18.4615 16.0566H13.9922C13.8314 16.0566 13.6773 15.9927 13.5636 15.879C13.45 15.7654 13.3861 15.6112 13.3861 15.4505V7.24641C12.7061 9.05013 11.4927 11.1521 10.2853 13.0079Z" fill="#006240"/>
<path id="Vector_4" d="M6.26666e-05 23.5442C-0.000259974 23.6649 0.0472848 23.7808 0.132271 23.8665C0.217258 23.9521 0.332749 24.0006 0.453419 24.0012H2.64747C2.76814 24.0009 2.88376 23.9528 2.96897 23.8673C3.05418 23.7819 3.10204 23.6661 3.10204 23.5455V12.911C1.87652 11.0066 0.654641 8.8829 6.26666e-05 7.11069V23.5442Z" fill="#006240"/>
</g>
</g>
</g>
<defs>
<clipPath id="clip0_15_83">
<rect width="23.6169" height="24" fill="white"/>
</clipPath>
</defs>
</svg>
