<svg width="24" height="24" viewBox="0 0 24 24" fill="none" xmlns="http://www.w3.org/2000/svg">
<g id="mage:package-box-fill">
<path id="Vector" d="M11.15 12.335V21.515C11.0965 21.4956 11.046 21.4686 11 21.435L4.49002 17.525C4.19894 17.3576 3.9574 17.1161 3.79002 16.825C3.61614 16.5211 3.52962 16.175 3.54002 15.825V7.75499L11.15 12.335ZM20.46 7.75499V15.855C20.4468 16.1886 20.3543 16.5143 20.19 16.805C20.0336 17.1035 19.7939 17.3501 19.5 17.515L12.99 21.425L12.85 21.495V12.325L16.11 10.325V13.095C16.11 13.3204 16.1996 13.5366 16.359 13.696C16.5184 13.8554 16.7346 13.945 16.96 13.945C17.1855 13.945 17.4017 13.8554 17.5611 13.696C17.7205 13.5366 17.81 13.3204 17.81 13.095V9.35499L20.46 7.75499ZM15.28 8.90499L12 10.905L4.34002 6.30499L4.45002 6.23499L7.51002 4.60499L15.28 8.90499ZM19.65 6.28499L16.94 7.90499L9.30002 3.62499L10.96 2.75499C11.2639 2.57873 11.6088 2.48561 11.96 2.48499C12.3115 2.49313 12.6554 2.58941 12.96 2.76499L19.43 6.22499C19.507 6.22777 19.5823 6.24831 19.65 6.28499Z" fill="white"/>
</g>
</svg>
