<svg width="20" height="20" viewBox="0 0 20 20" fill="none" xmlns="http://www.w3.org/2000/svg">
<g id="solar:arrow-right-outline">
<path id="Vector" fill-rule="evenodd" clip-rule="evenodd" d="M11.225 4.55833C11.3422 4.44129 11.501 4.37555 11.6666 4.37555C11.8323 4.37555 11.9911 4.44129 12.1083 4.55833L17.1083 9.55833C17.2254 9.67552 17.2911 9.83437 17.2911 10C17.2911 10.1656 17.2254 10.3245 17.1083 10.4417L12.1083 15.4417C12.0511 15.5031 11.9821 15.5523 11.9054 15.5865C11.8288 15.6206 11.746 15.639 11.6621 15.6405C11.5782 15.642 11.4948 15.6265 11.417 15.5951C11.3392 15.5637 11.2685 15.5169 11.2091 15.4575C11.1498 15.3982 11.103 15.3275 11.0715 15.2497C11.0401 15.1718 11.0247 15.0885 11.0262 15.0046C11.0276 14.9206 11.046 14.8379 11.0802 14.7612C11.1143 14.6846 11.1636 14.6156 11.225 14.5583L15.1583 10.625H3.33331C3.16755 10.625 3.00858 10.5592 2.89137 10.4419C2.77416 10.3247 2.70831 10.1658 2.70831 10C2.70831 9.83424 2.77416 9.67527 2.89137 9.55806C3.00858 9.44085 3.16755 9.375 3.33331 9.375H15.1583L11.225 5.44167C11.1079 5.32448 11.0422 5.16562 11.0422 5C11.0422 4.83437 11.1079 4.67552 11.225 4.55833Z" fill="white"/>
</g>
</svg>
