<svg width="16" height="16" viewBox="0 0 16 16" fill="none" xmlns="http://www.w3.org/2000/svg">
<g id="solar:round-alt-arrow-down-outline" clip-path="url(#clip0_25_177)">
<path id="Vector" fill-rule="evenodd" clip-rule="evenodd" d="M8.00004 1.83333C6.36454 1.83333 4.79602 2.48303 3.63955 3.63951C2.48307 4.79598 1.83337 6.3645 1.83337 8C1.83337 9.6355 2.48307 11.204 3.63955 12.3605C4.79602 13.517 6.36454 14.1667 8.00004 14.1667C9.63554 14.1667 11.2041 13.517 12.3605 12.3605C13.517 11.204 14.1667 9.6355 14.1667 8C14.1667 6.3645 13.517 4.79598 12.3605 3.63951C11.2041 2.48303 9.63554 1.83333 8.00004 1.83333ZM0.833374 8C0.833374 4.042 4.04204 0.833332 8.00004 0.833332C11.958 0.833332 15.1667 4.042 15.1667 8C15.1667 11.958 11.958 15.1667 8.00004 15.1667C4.04204 15.1667 0.833374 11.958 0.833374 8ZM5.64671 6.64667C5.74046 6.55303 5.86754 6.50044 6.00004 6.50044C6.13254 6.50044 6.25962 6.55303 6.35337 6.64667L8.00004 8.29333L9.64671 6.64667C9.69248 6.59754 9.74768 6.55814 9.80901 6.53081C9.87035 6.50348 9.93656 6.48879 10.0037 6.4876C10.0708 6.48642 10.1375 6.49877 10.1998 6.52392C10.262 6.54906 10.3186 6.58649 10.3661 6.63397C10.4135 6.68145 10.451 6.73801 10.4761 6.80027C10.5013 6.86253 10.5136 6.92921 10.5124 6.99635C10.5113 7.06348 10.4966 7.12969 10.4692 7.19102C10.4419 7.25236 10.4025 7.30756 10.3534 7.35333L8.35337 9.35333C8.25962 9.44697 8.13254 9.49956 8.00004 9.49956C7.86754 9.49956 7.74046 9.44697 7.64671 9.35333L5.64671 7.35333C5.55307 7.25958 5.50048 7.1325 5.50048 7C5.50048 6.8675 5.55307 6.74042 5.64671 6.64667Z" fill="white"/>
</g>
<defs>
<clipPath id="clip0_25_177">
<rect width="16" height="16" fill="white"/>
</clipPath>
</defs>
</svg>
