<svg width="20" height="20" viewBox="0 0 20 20" fill="none" xmlns="http://www.w3.org/2000/svg">
<g id="meteocons:star-fill">
<path id="Vector" d="M4.4048 11.8025L8.76323 11.8439C8.81539 11.8449 8.86644 11.8591 8.91162 11.8852C8.9568 11.9112 8.99463 11.9484 9.02157 11.993L11.2366 15.7469C11.2706 15.8037 11.3222 15.8478 11.3836 15.8727C11.445 15.8975 11.5128 15.9017 11.5768 15.8845C11.6407 15.8674 11.6974 15.8299 11.7381 15.7777C11.7788 15.7255 11.8015 15.6614 11.8026 15.5952L11.8439 11.2368C11.8449 11.1846 11.8591 11.1336 11.8852 11.0884C11.9113 11.0432 11.9484 11.0054 11.993 10.9784L15.7469 8.76344C15.8037 8.7294 15.8478 8.67778 15.8727 8.6164C15.8975 8.55502 15.9017 8.48721 15.8845 8.42326C15.8674 8.3593 15.8299 8.30266 15.7777 8.26192C15.7255 8.22118 15.6614 8.19856 15.5952 8.19747L11.2368 8.15614C11.1846 8.15514 11.1336 8.14093 11.0884 8.11485C11.0432 8.08876 11.0054 8.05165 10.9785 8.00698L8.76345 4.25314C8.72941 4.19635 8.67779 4.15219 8.61641 4.12736C8.55503 4.10252 8.48723 4.09836 8.42327 4.1155C8.35931 4.13263 8.30267 4.17014 8.26193 4.22234C8.2212 4.27454 8.19857 4.33858 8.19748 4.40479L8.15615 8.76322C8.15515 8.81538 8.14094 8.86643 8.11486 8.91161C8.08877 8.95679 8.05166 8.99462 8.00699 9.02156L4.25315 11.2366C4.19636 11.2706 4.1522 11.3222 4.12737 11.3836C4.10253 11.445 4.09837 11.5128 4.11551 11.5768C4.13264 11.6407 4.17015 11.6973 4.22235 11.7381C4.27455 11.7788 4.3386 11.8015 4.4048 11.8025Z" fill="url(#paint0_linear_41_14441)" stroke="#FCD34D" stroke-width="0.125" stroke-linecap="round" stroke-linejoin="round"/>
</g>
<defs>
<linearGradient id="paint0_linear_41_14441" x1="6.23852" y1="6.23996" x2="13.7615" y2="13.76" gradientUnits="userSpaceOnUse">
<stop stop-color="#FCD966"/>
<stop offset="0.5" stop-color="#FCD966"/>
<stop offset="1" stop-color="#FCCD34"/>
</linearGradient>
</defs>
</svg>
